<?xml version="1.0" standalone="no"?>
<!DOCTYPE svg PUBLIC "-//W3C//DTD SVG 20010904//EN"
 "http://www.w3.org/TR/2001/REC-SVG-20010904/DTD/svg10.dtd">
<svg version="1.0" xmlns="http://www.w3.org/2000/svg"
 width="128.000000pt" height="128.000000pt" viewBox="0 0 128.000000 128.000000"
 preserveAspectRatio="xMidYMid meet">
<metadata>
Created by potrace 1.15, written by Peter Selinger 2001-2017
</metadata>
<g transform="translate(0.000000,128.000000) scale(0.100000,-0.100000)"
fill="#000000" stroke="none">
<path d="M560 1261 c-6 -13 -10 -144 -10 -358 l0 -338 -93 93 c-111 110 -125
114 -186 47 -22 -24 -41 -52 -41 -62 0 -10 87 -104 193 -210 144 -144 199
-193 217 -193 18 0 72 48 212 188 104 103 191 197 195 210 4 19 -4 33 -38 68
-63 65 -76 61 -186 -48 l-93 -93 0 346 c0 255 -3 348 -12 357 -7 7 -40 12 -80
12 -56 0 -69 -3 -78 -19z"/>
<path d="M160 173 c-28 -10 -40 -37 -40 -89 0 -90 -36 -84 520 -84 557 0 520
-6 520 86 0 41 -5 59 -20 74 -19 19 -33 20 -492 19 -260 0 -480 -3 -488 -6z"/>
</g>
</svg>
